<mxfile host="app.diagrams.net" modified="2023-12-07T12:48:38.203Z" agent="Mozilla/5.0 (Windows NT 10.0; Win64; x64) AppleWebKit/537.36 (KHTML, like Gecko) Chrome/119.0.0.0 Safari/537.36" etag="eZ_FaZ_RLqsIOH8cKp9A" version="22.1.7" type="device">
  <diagram name="Страница — 1" id="k3Z_u_sf0qgLtZ2DlkZn">
    <mxGraphModel dx="2441" dy="842" grid="1" gridSize="10" guides="1" tooltips="1" connect="1" arrows="1" fold="1" page="1" pageScale="1" pageWidth="827" pageHeight="1169" math="0" shadow="0">
      <root>
        <mxCell id="0" />
        <mxCell id="1" parent="0" />
        <mxCell id="c1LvxNHjl3KlKCbGbmdb-97" value="" style="group" parent="1" vertex="1" connectable="0">
          <mxGeometry x="50" y="50" width="440" height="840" as="geometry" />
        </mxCell>
        <mxCell id="c1LvxNHjl3KlKCbGbmdb-6" value="Controllers" style="shape=folder;fontStyle=1;spacingTop=10;tabWidth=40;tabHeight=14;tabPosition=left;html=1;whiteSpace=wrap;verticalAlign=top;" parent="c1LvxNHjl3KlKCbGbmdb-97" vertex="1">
          <mxGeometry width="440" height="840" as="geometry" />
        </mxCell>
        <mxCell id="c1LvxNHjl3KlKCbGbmdb-2" value="AccountController" style="swimlane;fontStyle=1;align=center;verticalAlign=top;childLayout=stackLayout;horizontal=1;startSize=26;horizontalStack=0;resizeParent=1;resizeParentMax=0;resizeLast=0;collapsible=1;marginBottom=0;whiteSpace=wrap;html=1;" parent="c1LvxNHjl3KlKCbGbmdb-97" vertex="1">
          <mxGeometry x="30" y="50" width="370" height="158" as="geometry" />
        </mxCell>
        <mxCell id="c1LvxNHjl3KlKCbGbmdb-3" value="- _accountService: IAccountService" style="text;strokeColor=none;fillColor=none;align=left;verticalAlign=top;spacingLeft=4;spacingRight=4;overflow=hidden;rotatable=0;points=[[0,0.5],[1,0.5]];portConstraint=eastwest;whiteSpace=wrap;html=1;" parent="c1LvxNHjl3KlKCbGbmdb-2" vertex="1">
          <mxGeometry y="26" width="370" height="24" as="geometry" />
        </mxCell>
        <mxCell id="c1LvxNHjl3KlKCbGbmdb-4" value="" style="line;strokeWidth=1;fillColor=none;align=left;verticalAlign=middle;spacingTop=-1;spacingLeft=3;spacingRight=3;rotatable=0;labelPosition=right;points=[];portConstraint=eastwest;strokeColor=inherit;" parent="c1LvxNHjl3KlKCbGbmdb-2" vertex="1">
          <mxGeometry y="50" width="370" height="8" as="geometry" />
        </mxCell>
        <mxCell id="c1LvxNHjl3KlKCbGbmdb-5" value="+ AccountController(IAccountService accountService): Constructor&lt;br&gt;+ Register(): IActionResult&lt;br&gt;+ Register(RegisterViewModel model): Task&amp;lt;IActionResult&amp;gt;&lt;br&gt;+ Login(): IActionResult&lt;br&gt;+ Login(LoginViewModel model): Task&amp;lt;IActionResult&amp;gt;&lt;br&gt;+ Logout(): Task&amp;lt;IActionResult&amp;gt;" style="text;strokeColor=none;fillColor=none;align=left;verticalAlign=top;spacingLeft=4;spacingRight=4;overflow=hidden;rotatable=0;points=[[0,0.5],[1,0.5]];portConstraint=eastwest;whiteSpace=wrap;html=1;" parent="c1LvxNHjl3KlKCbGbmdb-2" vertex="1">
          <mxGeometry y="58" width="370" height="100" as="geometry" />
        </mxCell>
        <mxCell id="c1LvxNHjl3KlKCbGbmdb-12" value="FieldMapController" style="swimlane;fontStyle=1;align=center;verticalAlign=top;childLayout=stackLayout;horizontal=1;startSize=26;horizontalStack=0;resizeParent=1;resizeParentMax=0;resizeLast=0;collapsible=1;marginBottom=0;whiteSpace=wrap;html=1;" parent="c1LvxNHjl3KlKCbGbmdb-97" vertex="1">
          <mxGeometry x="30" y="250" width="370" height="220" as="geometry" />
        </mxCell>
        <mxCell id="c1LvxNHjl3KlKCbGbmdb-13" value="- _moistmeterRepository: IMoistmeterRepository" style="text;strokeColor=none;fillColor=none;align=left;verticalAlign=top;spacingLeft=4;spacingRight=4;overflow=hidden;rotatable=0;points=[[0,0.5],[1,0.5]];portConstraint=eastwest;whiteSpace=wrap;html=1;" parent="c1LvxNHjl3KlKCbGbmdb-12" vertex="1">
          <mxGeometry y="26" width="370" height="26" as="geometry" />
        </mxCell>
        <mxCell id="c1LvxNHjl3KlKCbGbmdb-14" value="" style="line;strokeWidth=1;fillColor=none;align=left;verticalAlign=middle;spacingTop=-1;spacingLeft=3;spacingRight=3;rotatable=0;labelPosition=right;points=[];portConstraint=eastwest;strokeColor=inherit;" parent="c1LvxNHjl3KlKCbGbmdb-12" vertex="1">
          <mxGeometry y="52" width="370" height="8" as="geometry" />
        </mxCell>
        <mxCell id="c1LvxNHjl3KlKCbGbmdb-15" value="+ FieldMapController(IMoistmeterRepository moistRepo): Constructor&lt;br&gt;+ IncarnateMoistMeasurement(DateTime startDate, string sensorName): List&amp;lt;object&amp;gt;&lt;br&gt;+ GetData(DateTime date, string sensorName): List&amp;lt;object&amp;gt;&lt;br&gt;+ _GetMoistmeterTable(DateTime date, string sensorName): PartialViewResult&lt;br&gt;+Index(): ViewResult&lt;br&gt;+ Header(): ActionResult&lt;br style=&quot;border-color: var(--border-color);&quot;&gt;+ Footer(): ActionResult" style="text;strokeColor=none;fillColor=none;align=left;verticalAlign=top;spacingLeft=4;spacingRight=4;overflow=hidden;rotatable=0;points=[[0,0.5],[1,0.5]];portConstraint=eastwest;whiteSpace=wrap;html=1;" parent="c1LvxNHjl3KlKCbGbmdb-12" vertex="1">
          <mxGeometry y="60" width="370" height="160" as="geometry" />
        </mxCell>
        <mxCell id="c1LvxNHjl3KlKCbGbmdb-8" value="HomeController" style="swimlane;fontStyle=1;align=center;verticalAlign=top;childLayout=stackLayout;horizontal=1;startSize=26;horizontalStack=0;resizeParent=1;resizeParentMax=0;resizeLast=0;collapsible=1;marginBottom=0;whiteSpace=wrap;html=1;" parent="c1LvxNHjl3KlKCbGbmdb-97" vertex="1">
          <mxGeometry x="30" y="500" width="370" height="320" as="geometry" />
        </mxCell>
        <mxCell id="c1LvxNHjl3KlKCbGbmdb-9" value="- _measurementRepository: IMeasurementRepository" style="text;strokeColor=none;fillColor=none;align=left;verticalAlign=top;spacingLeft=4;spacingRight=4;overflow=hidden;rotatable=0;points=[[0,0.5],[1,0.5]];portConstraint=eastwest;whiteSpace=wrap;html=1;" parent="c1LvxNHjl3KlKCbGbmdb-8" vertex="1">
          <mxGeometry y="26" width="370" height="26" as="geometry" />
        </mxCell>
        <mxCell id="c1LvxNHjl3KlKCbGbmdb-10" value="" style="line;strokeWidth=1;fillColor=none;align=left;verticalAlign=middle;spacingTop=-1;spacingLeft=3;spacingRight=3;rotatable=0;labelPosition=right;points=[];portConstraint=eastwest;strokeColor=inherit;" parent="c1LvxNHjl3KlKCbGbmdb-8" vertex="1">
          <mxGeometry y="52" width="370" height="8" as="geometry" />
        </mxCell>
        <mxCell id="c1LvxNHjl3KlKCbGbmdb-11" value="+ HomeController(IMeasurementRepository): Constructor&lt;br&gt;+ IncarnateMeasurement(TypeOf measure typeOfMeasure, DateTime startDate, int daysAmount): List&amp;lt;object&amp;gt;&lt;br&gt;+ GetTpovData1(DateTime date): List&amp;lt;object&amp;gt;&lt;br&gt;+ GetTpovData3(DateTime date): List&amp;lt;object&amp;gt;&lt;br&gt;+ GetFarData1(DateTime date): List&amp;lt;object&amp;gt;&lt;br&gt;+ GetFarData3(DateTime date): List&amp;lt;object&amp;gt;&lt;br&gt;+ GetRhData1(DateTime date): List&amp;lt;object&amp;gt;&lt;br&gt;+ GetRhData3(DateTime date): List&amp;lt;object&amp;gt;&lt;br&gt;+ GetTwindData1(DateTime date): List&amp;lt;object&amp;gt;&lt;br&gt;+ GetTwindData3(DateTime date): List&amp;lt;object&amp;gt;&lt;br&gt;+ GetWindData1(DateTime date): List&amp;lt;object&amp;gt;&lt;br&gt;+ GetWindData3(DateTime date): List&amp;lt;object&amp;gt;&lt;br&gt;+ _GetTable(DateTime date): PartialViewResult&lt;br&gt;+ Index(): ViewResult&lt;br&gt;+ Header(): ActionResult&lt;br&gt;+ Footer(): ActionResult" style="text;strokeColor=none;fillColor=none;align=left;verticalAlign=top;spacingLeft=4;spacingRight=4;overflow=hidden;rotatable=0;points=[[0,0.5],[1,0.5]];portConstraint=eastwest;whiteSpace=wrap;html=1;" parent="c1LvxNHjl3KlKCbGbmdb-8" vertex="1">
          <mxGeometry y="60" width="370" height="260" as="geometry" />
        </mxCell>
        <mxCell id="c1LvxNHjl3KlKCbGbmdb-98" value="" style="group" parent="1" vertex="1" connectable="0">
          <mxGeometry x="550" y="70" width="470" height="820" as="geometry" />
        </mxCell>
        <mxCell id="c1LvxNHjl3KlKCbGbmdb-16" value="Infrastructure" style="shape=folder;fontStyle=1;spacingTop=10;tabWidth=40;tabHeight=14;tabPosition=left;html=1;whiteSpace=wrap;verticalAlign=top;" parent="c1LvxNHjl3KlKCbGbmdb-98" vertex="1">
          <mxGeometry width="470" height="820" as="geometry" />
        </mxCell>
        <mxCell id="c1LvxNHjl3KlKCbGbmdb-25" value="" style="group" parent="c1LvxNHjl3KlKCbGbmdb-98" vertex="1" connectable="0">
          <mxGeometry x="70" y="640" width="340" height="150" as="geometry" />
        </mxCell>
        <mxCell id="c1LvxNHjl3KlKCbGbmdb-21" value="Enum" style="shape=folder;fontStyle=1;spacingTop=10;tabWidth=40;tabHeight=14;tabPosition=left;html=1;whiteSpace=wrap;verticalAlign=top;" parent="c1LvxNHjl3KlKCbGbmdb-25" vertex="1">
          <mxGeometry width="340" height="150" as="geometry" />
        </mxCell>
        <mxCell id="c1LvxNHjl3KlKCbGbmdb-22" value="StatusCode" style="swimlane;fontStyle=1;align=center;verticalAlign=top;childLayout=stackLayout;horizontal=1;startSize=26;horizontalStack=0;resizeParent=1;resizeParentMax=0;resizeLast=0;collapsible=1;marginBottom=0;whiteSpace=wrap;html=1;" parent="c1LvxNHjl3KlKCbGbmdb-25" vertex="1">
          <mxGeometry x="170" y="37" width="150" height="98" as="geometry" />
        </mxCell>
        <mxCell id="c1LvxNHjl3KlKCbGbmdb-23" value="UserNotFound = 0&lt;br&gt;UserAlredyExists = 1&lt;br&gt;OK = 200&lt;br&gt;InternalServerError = 500" style="text;strokeColor=none;fillColor=none;align=left;verticalAlign=top;spacingLeft=4;spacingRight=4;overflow=hidden;rotatable=0;points=[[0,0.5],[1,0.5]];portConstraint=eastwest;whiteSpace=wrap;html=1;" parent="c1LvxNHjl3KlKCbGbmdb-22" vertex="1">
          <mxGeometry y="26" width="150" height="64" as="geometry" />
        </mxCell>
        <mxCell id="c1LvxNHjl3KlKCbGbmdb-24" value="" style="line;strokeWidth=1;fillColor=none;align=left;verticalAlign=middle;spacingTop=-1;spacingLeft=3;spacingRight=3;rotatable=0;labelPosition=right;points=[];portConstraint=eastwest;strokeColor=inherit;" parent="c1LvxNHjl3KlKCbGbmdb-22" vertex="1">
          <mxGeometry y="90" width="150" height="8" as="geometry" />
        </mxCell>
        <mxCell id="c1LvxNHjl3KlKCbGbmdb-17" value="Role" style="swimlane;fontStyle=1;align=center;verticalAlign=top;childLayout=stackLayout;horizontal=1;startSize=26;horizontalStack=0;resizeParent=1;resizeParentMax=0;resizeLast=0;collapsible=1;marginBottom=0;whiteSpace=wrap;html=1;" parent="c1LvxNHjl3KlKCbGbmdb-25" vertex="1">
          <mxGeometry x="30" y="52" width="100" height="68" as="geometry" />
        </mxCell>
        <mxCell id="c1LvxNHjl3KlKCbGbmdb-18" value="User = 0&lt;br&gt;Admin = 1" style="text;strokeColor=none;fillColor=none;align=left;verticalAlign=top;spacingLeft=4;spacingRight=4;overflow=hidden;rotatable=0;points=[[0,0.5],[1,0.5]];portConstraint=eastwest;whiteSpace=wrap;html=1;" parent="c1LvxNHjl3KlKCbGbmdb-17" vertex="1">
          <mxGeometry y="26" width="100" height="34" as="geometry" />
        </mxCell>
        <mxCell id="c1LvxNHjl3KlKCbGbmdb-19" value="" style="line;strokeWidth=1;fillColor=none;align=left;verticalAlign=middle;spacingTop=-1;spacingLeft=3;spacingRight=3;rotatable=0;labelPosition=right;points=[];portConstraint=eastwest;strokeColor=inherit;" parent="c1LvxNHjl3KlKCbGbmdb-17" vertex="1">
          <mxGeometry y="60" width="100" height="8" as="geometry" />
        </mxCell>
        <mxCell id="c1LvxNHjl3KlKCbGbmdb-26" value="AcconuntService" style="swimlane;fontStyle=1;align=center;verticalAlign=top;childLayout=stackLayout;horizontal=1;startSize=26;horizontalStack=0;resizeParent=1;resizeParentMax=0;resizeLast=0;collapsible=1;marginBottom=0;whiteSpace=wrap;html=1;" parent="c1LvxNHjl3KlKCbGbmdb-98" vertex="1">
          <mxGeometry x="25" y="230" width="430" height="160" as="geometry" />
        </mxCell>
        <mxCell id="c1LvxNHjl3KlKCbGbmdb-27" value="- _userRepository: IbaseRepository&amp;lt;User&amp;gt;&lt;br&gt;- _logger: ILogger&amp;lt;AccountService&amp;gt;" style="text;strokeColor=none;fillColor=none;align=left;verticalAlign=top;spacingLeft=4;spacingRight=4;overflow=hidden;rotatable=0;points=[[0,0.5],[1,0.5]];portConstraint=eastwest;whiteSpace=wrap;html=1;" parent="c1LvxNHjl3KlKCbGbmdb-26" vertex="1">
          <mxGeometry y="26" width="430" height="34" as="geometry" />
        </mxCell>
        <mxCell id="c1LvxNHjl3KlKCbGbmdb-28" value="" style="line;strokeWidth=1;fillColor=none;align=left;verticalAlign=middle;spacingTop=-1;spacingLeft=3;spacingRight=3;rotatable=0;labelPosition=right;points=[];portConstraint=eastwest;strokeColor=inherit;" parent="c1LvxNHjl3KlKCbGbmdb-26" vertex="1">
          <mxGeometry y="60" width="430" height="8" as="geometry" />
        </mxCell>
        <mxCell id="c1LvxNHjl3KlKCbGbmdb-29" value="+ AccountService (IBaseRepository&amp;lt;User&amp;gt; userRepository, ILogger&amp;lt;AccountService&amp;gt; logger): Constructor&lt;br&gt;+ Register(RegisterViewModel model): Task&amp;lt;BaseResponse&amp;lt;ClaimsIdentity&amp;gt;&amp;gt;&lt;br&gt;+ Login(LoginViewModel model): Task&amp;lt;BaseResponse&amp;lt;ClaimsIdentity&amp;gt;&amp;gt;&lt;br&gt;- Authenticate(User user): ClaimsIdentity" style="text;strokeColor=none;fillColor=none;align=left;verticalAlign=top;spacingLeft=4;spacingRight=4;overflow=hidden;rotatable=0;points=[[0,0.5],[1,0.5]];portConstraint=eastwest;whiteSpace=wrap;html=1;" parent="c1LvxNHjl3KlKCbGbmdb-26" vertex="1">
          <mxGeometry y="68" width="430" height="92" as="geometry" />
        </mxCell>
        <mxCell id="XDjCzHebDbUMIGUtCSpz-97" style="edgeStyle=orthogonalEdgeStyle;rounded=0;orthogonalLoop=1;jettySize=auto;html=1;endArrow=block;endFill=0;" edge="1" parent="c1LvxNHjl3KlKCbGbmdb-98" source="c1LvxNHjl3KlKCbGbmdb-30" target="c1LvxNHjl3KlKCbGbmdb-35">
          <mxGeometry relative="1" as="geometry" />
        </mxCell>
        <mxCell id="c1LvxNHjl3KlKCbGbmdb-30" value="BaseResponse&amp;lt;T&amp;gt;" style="swimlane;fontStyle=1;align=center;verticalAlign=top;childLayout=stackLayout;horizontal=1;startSize=26;horizontalStack=0;resizeParent=1;resizeParentMax=0;resizeLast=0;collapsible=1;marginBottom=0;whiteSpace=wrap;html=1;" parent="c1LvxNHjl3KlKCbGbmdb-98" vertex="1">
          <mxGeometry x="260" y="510" width="170" height="88" as="geometry" />
        </mxCell>
        <mxCell id="c1LvxNHjl3KlKCbGbmdb-31" value="+ Description: string&lt;br&gt;+ StatusCose: StatusCode&lt;br&gt;+ Data: T" style="text;strokeColor=none;fillColor=none;align=left;verticalAlign=top;spacingLeft=4;spacingRight=4;overflow=hidden;rotatable=0;points=[[0,0.5],[1,0.5]];portConstraint=eastwest;whiteSpace=wrap;html=1;" parent="c1LvxNHjl3KlKCbGbmdb-30" vertex="1">
          <mxGeometry y="26" width="170" height="54" as="geometry" />
        </mxCell>
        <mxCell id="c1LvxNHjl3KlKCbGbmdb-32" value="" style="line;strokeWidth=1;fillColor=none;align=left;verticalAlign=middle;spacingTop=-1;spacingLeft=3;spacingRight=3;rotatable=0;labelPosition=right;points=[];portConstraint=eastwest;strokeColor=inherit;" parent="c1LvxNHjl3KlKCbGbmdb-30" vertex="1">
          <mxGeometry y="80" width="170" height="8" as="geometry" />
        </mxCell>
        <mxCell id="c1LvxNHjl3KlKCbGbmdb-34" value="IBaseResponse&amp;lt;T&amp;gt;" style="swimlane;fontStyle=1;align=center;verticalAlign=top;childLayout=stackLayout;horizontal=1;startSize=26;horizontalStack=0;resizeParent=1;resizeParentMax=0;resizeLast=0;collapsible=1;marginBottom=0;whiteSpace=wrap;html=1;" parent="c1LvxNHjl3KlKCbGbmdb-98" vertex="1">
          <mxGeometry x="30" y="510" width="170" height="88" as="geometry" />
        </mxCell>
        <mxCell id="c1LvxNHjl3KlKCbGbmdb-35" value="+ Description: string&lt;br&gt;+ StatusCose: StatusCode&lt;br&gt;+ Data: T" style="text;strokeColor=none;fillColor=none;align=left;verticalAlign=top;spacingLeft=4;spacingRight=4;overflow=hidden;rotatable=0;points=[[0,0.5],[1,0.5]];portConstraint=eastwest;whiteSpace=wrap;html=1;" parent="c1LvxNHjl3KlKCbGbmdb-34" vertex="1">
          <mxGeometry y="26" width="170" height="54" as="geometry" />
        </mxCell>
        <mxCell id="c1LvxNHjl3KlKCbGbmdb-36" value="" style="line;strokeWidth=1;fillColor=none;align=left;verticalAlign=middle;spacingTop=-1;spacingLeft=3;spacingRight=3;rotatable=0;labelPosition=right;points=[];portConstraint=eastwest;strokeColor=inherit;" parent="c1LvxNHjl3KlKCbGbmdb-34" vertex="1">
          <mxGeometry y="80" width="170" height="8" as="geometry" />
        </mxCell>
        <mxCell id="c1LvxNHjl3KlKCbGbmdb-37" value="HashPassword" style="swimlane;fontStyle=1;align=center;verticalAlign=top;childLayout=stackLayout;horizontal=1;startSize=26;horizontalStack=0;resizeParent=1;resizeParentMax=0;resizeLast=0;collapsible=1;marginBottom=0;whiteSpace=wrap;html=1;" parent="c1LvxNHjl3KlKCbGbmdb-98" vertex="1">
          <mxGeometry x="127" y="420" width="230" height="60" as="geometry" />
        </mxCell>
        <mxCell id="c1LvxNHjl3KlKCbGbmdb-39" value="" style="line;strokeWidth=1;fillColor=none;align=left;verticalAlign=middle;spacingTop=-1;spacingLeft=3;spacingRight=3;rotatable=0;labelPosition=right;points=[];portConstraint=eastwest;strokeColor=inherit;" parent="c1LvxNHjl3KlKCbGbmdb-37" vertex="1">
          <mxGeometry y="26" width="230" height="8" as="geometry" />
        </mxCell>
        <mxCell id="c1LvxNHjl3KlKCbGbmdb-40" value="+ HashPassword(string password): string" style="text;strokeColor=none;fillColor=none;align=left;verticalAlign=top;spacingLeft=4;spacingRight=4;overflow=hidden;rotatable=0;points=[[0,0.5],[1,0.5]];portConstraint=eastwest;whiteSpace=wrap;html=1;" parent="c1LvxNHjl3KlKCbGbmdb-37" vertex="1">
          <mxGeometry y="34" width="230" height="26" as="geometry" />
        </mxCell>
        <mxCell id="c1LvxNHjl3KlKCbGbmdb-41" value="IAccountService" style="swimlane;fontStyle=1;align=center;verticalAlign=top;childLayout=stackLayout;horizontal=1;startSize=26;horizontalStack=0;resizeParent=1;resizeParentMax=0;resizeLast=0;collapsible=1;marginBottom=0;whiteSpace=wrap;html=1;" parent="c1LvxNHjl3KlKCbGbmdb-98" vertex="1">
          <mxGeometry x="120" y="50" width="230" height="110" as="geometry" />
        </mxCell>
        <mxCell id="c1LvxNHjl3KlKCbGbmdb-42" value="" style="line;strokeWidth=1;fillColor=none;align=left;verticalAlign=middle;spacingTop=-1;spacingLeft=3;spacingRight=3;rotatable=0;labelPosition=right;points=[];portConstraint=eastwest;strokeColor=inherit;" parent="c1LvxNHjl3KlKCbGbmdb-41" vertex="1">
          <mxGeometry y="26" width="230" height="8" as="geometry" />
        </mxCell>
        <mxCell id="c1LvxNHjl3KlKCbGbmdb-43" value="+ Register(RegisterViewModel model): Task&amp;lt;BaseResponse&amp;lt;ClaimsIdentity&amp;gt;&amp;gt;&lt;br&gt;+ Login(LoginViewModel model): Task&amp;lt;BaseResponse&amp;lt;ClaimsIdentity&amp;gt;&amp;gt;" style="text;strokeColor=none;fillColor=none;align=left;verticalAlign=top;spacingLeft=4;spacingRight=4;overflow=hidden;rotatable=0;points=[[0,0.5],[1,0.5]];portConstraint=eastwest;whiteSpace=wrap;html=1;" parent="c1LvxNHjl3KlKCbGbmdb-41" vertex="1">
          <mxGeometry y="34" width="230" height="76" as="geometry" />
        </mxCell>
        <mxCell id="XDjCzHebDbUMIGUtCSpz-98" style="edgeStyle=orthogonalEdgeStyle;rounded=0;orthogonalLoop=1;jettySize=auto;html=1;entryX=0.513;entryY=1.003;entryDx=0;entryDy=0;entryPerimeter=0;endArrow=block;endFill=0;" edge="1" parent="c1LvxNHjl3KlKCbGbmdb-98" source="c1LvxNHjl3KlKCbGbmdb-26" target="c1LvxNHjl3KlKCbGbmdb-43">
          <mxGeometry relative="1" as="geometry" />
        </mxCell>
        <mxCell id="XDjCzHebDbUMIGUtCSpz-79" value="" style="group" vertex="1" connectable="0" parent="1">
          <mxGeometry x="90" y="910" width="1240" height="760" as="geometry" />
        </mxCell>
        <mxCell id="c1LvxNHjl3KlKCbGbmdb-100" value="" style="group" parent="XDjCzHebDbUMIGUtCSpz-79" vertex="1" connectable="0">
          <mxGeometry x="181" width="1049" height="760" as="geometry" />
        </mxCell>
        <mxCell id="XDjCzHebDbUMIGUtCSpz-78" value="" style="group" vertex="1" connectable="0" parent="c1LvxNHjl3KlKCbGbmdb-100">
          <mxGeometry x="-233.11111111111111" width="985.4242424242425" height="760" as="geometry" />
        </mxCell>
        <mxCell id="c1LvxNHjl3KlKCbGbmdb-44" value="Models" style="shape=folder;fontStyle=1;spacingTop=10;tabWidth=40;tabHeight=14;tabPosition=left;html=1;whiteSpace=wrap;verticalAlign=top;" parent="XDjCzHebDbUMIGUtCSpz-78" vertex="1">
          <mxGeometry width="985.4242424242425" height="760" as="geometry" />
        </mxCell>
        <mxCell id="c1LvxNHjl3KlKCbGbmdb-45" value="ApplicationDbContext" style="swimlane;fontStyle=1;align=center;verticalAlign=top;childLayout=stackLayout;horizontal=1;startSize=26;horizontalStack=0;resizeParent=1;resizeParentMax=0;resizeLast=0;collapsible=1;marginBottom=0;whiteSpace=wrap;html=1;" parent="XDjCzHebDbUMIGUtCSpz-78" vertex="1">
          <mxGeometry x="561.5858585858587" y="60" width="392.0505050505051" height="140" as="geometry" />
        </mxCell>
        <mxCell id="c1LvxNHjl3KlKCbGbmdb-46" value="+ Measurement: DbSet&amp;lt;Measurement&amp;gt;&lt;br&gt;+ User: DbSet&amp;lt;User&amp;gt;&lt;br&gt;+ Moistmeter: DbSet&amp;lt;Moistmeter&amp;gt;" style="text;strokeColor=none;fillColor=none;align=left;verticalAlign=top;spacingLeft=4;spacingRight=4;overflow=hidden;rotatable=0;points=[[0,0.5],[1,0.5]];portConstraint=eastwest;whiteSpace=wrap;html=1;" parent="c1LvxNHjl3KlKCbGbmdb-45" vertex="1">
          <mxGeometry y="26" width="392.0505050505051" height="54" as="geometry" />
        </mxCell>
        <mxCell id="c1LvxNHjl3KlKCbGbmdb-47" value="" style="line;strokeWidth=1;fillColor=none;align=left;verticalAlign=middle;spacingTop=-1;spacingLeft=3;spacingRight=3;rotatable=0;labelPosition=right;points=[];portConstraint=eastwest;strokeColor=inherit;" parent="c1LvxNHjl3KlKCbGbmdb-45" vertex="1">
          <mxGeometry y="80" width="392.0505050505051" height="8" as="geometry" />
        </mxCell>
        <mxCell id="c1LvxNHjl3KlKCbGbmdb-48" value="+ ApplicationDbContext(DbContextOptions&amp;lt;ApplicationDbContext&amp;gt; options): base(options)&lt;br&gt;# OnModelCreating(ModelBuilder modelBuilder): void" style="text;strokeColor=none;fillColor=none;align=left;verticalAlign=top;spacingLeft=4;spacingRight=4;overflow=hidden;rotatable=0;points=[[0,0.5],[1,0.5]];portConstraint=eastwest;whiteSpace=wrap;html=1;" parent="c1LvxNHjl3KlKCbGbmdb-45" vertex="1">
          <mxGeometry y="88" width="392.0505050505051" height="52" as="geometry" />
        </mxCell>
        <mxCell id="c1LvxNHjl3KlKCbGbmdb-49" value="ErrorViewModel" style="swimlane;fontStyle=1;align=center;verticalAlign=top;childLayout=stackLayout;horizontal=1;startSize=26;horizontalStack=0;resizeParent=1;resizeParentMax=0;resizeLast=0;collapsible=1;marginBottom=0;whiteSpace=wrap;html=1;" parent="XDjCzHebDbUMIGUtCSpz-78" vertex="1">
          <mxGeometry x="794.7010101010102" y="600" width="148.34343434343432" height="68" as="geometry" />
        </mxCell>
        <mxCell id="c1LvxNHjl3KlKCbGbmdb-50" value="+ RequestId: string&lt;br&gt;+ ShowRequestId: bool" style="text;strokeColor=none;fillColor=none;align=left;verticalAlign=top;spacingLeft=4;spacingRight=4;overflow=hidden;rotatable=0;points=[[0,0.5],[1,0.5]];portConstraint=eastwest;whiteSpace=wrap;html=1;" parent="c1LvxNHjl3KlKCbGbmdb-49" vertex="1">
          <mxGeometry y="26" width="148.34343434343432" height="34" as="geometry" />
        </mxCell>
        <mxCell id="c1LvxNHjl3KlKCbGbmdb-51" value="" style="line;strokeWidth=1;fillColor=none;align=left;verticalAlign=middle;spacingTop=-1;spacingLeft=3;spacingRight=3;rotatable=0;labelPosition=right;points=[];portConstraint=eastwest;strokeColor=inherit;" parent="c1LvxNHjl3KlKCbGbmdb-49" vertex="1">
          <mxGeometry y="60" width="148.34343434343432" height="8" as="geometry" />
        </mxCell>
        <mxCell id="c1LvxNHjl3KlKCbGbmdb-53" value="LoginViewModel" style="swimlane;fontStyle=1;align=center;verticalAlign=top;childLayout=stackLayout;horizontal=1;startSize=26;horizontalStack=0;resizeParent=1;resizeParentMax=0;resizeLast=0;collapsible=1;marginBottom=0;whiteSpace=wrap;html=1;" parent="XDjCzHebDbUMIGUtCSpz-78" vertex="1">
          <mxGeometry x="805.2910101010102" y="488" width="148.34343434343432" height="68" as="geometry" />
        </mxCell>
        <mxCell id="c1LvxNHjl3KlKCbGbmdb-54" value="+ Name: string&lt;br&gt;+ Password: string" style="text;strokeColor=none;fillColor=none;align=left;verticalAlign=top;spacingLeft=4;spacingRight=4;overflow=hidden;rotatable=0;points=[[0,0.5],[1,0.5]];portConstraint=eastwest;whiteSpace=wrap;html=1;" parent="c1LvxNHjl3KlKCbGbmdb-53" vertex="1">
          <mxGeometry y="26" width="148.34343434343432" height="34" as="geometry" />
        </mxCell>
        <mxCell id="c1LvxNHjl3KlKCbGbmdb-55" value="" style="line;strokeWidth=1;fillColor=none;align=left;verticalAlign=middle;spacingTop=-1;spacingLeft=3;spacingRight=3;rotatable=0;labelPosition=right;points=[];portConstraint=eastwest;strokeColor=inherit;" parent="c1LvxNHjl3KlKCbGbmdb-53" vertex="1">
          <mxGeometry y="60" width="148.34343434343432" height="8" as="geometry" />
        </mxCell>
        <mxCell id="c1LvxNHjl3KlKCbGbmdb-56" value="Measurement" style="swimlane;fontStyle=1;align=center;verticalAlign=top;childLayout=stackLayout;horizontal=1;startSize=26;horizontalStack=0;resizeParent=1;resizeParentMax=0;resizeLast=0;collapsible=1;marginBottom=0;whiteSpace=wrap;html=1;" parent="XDjCzHebDbUMIGUtCSpz-78" vertex="1">
          <mxGeometry x="561.5858585858587" y="290" width="169.53535353535355" height="198" as="geometry">
            <mxRectangle x="30" y="336" width="120" height="30" as="alternateBounds" />
          </mxGeometry>
        </mxCell>
        <mxCell id="c1LvxNHjl3KlKCbGbmdb-57" value="+ id: int&lt;br&gt;+ measure_date: DateTime&lt;br&gt;+ measure_hour: int&lt;br&gt;+ measure_min: int&lt;br&gt;+ t_pov: decimal&lt;br&gt;+ far: decimal&lt;br&gt;+ rh: decimal&lt;br&gt;+ t: decimal&lt;br&gt;+ winddir: decimal&lt;br&gt;+ wind: decimal&lt;br&gt;+ enum TypeOfMeasure" style="text;strokeColor=none;fillColor=none;align=left;verticalAlign=top;spacingLeft=4;spacingRight=4;overflow=hidden;rotatable=0;points=[[0,0.5],[1,0.5]];portConstraint=eastwest;whiteSpace=wrap;html=1;" parent="c1LvxNHjl3KlKCbGbmdb-56" vertex="1">
          <mxGeometry y="26" width="169.53535353535355" height="164" as="geometry" />
        </mxCell>
        <mxCell id="c1LvxNHjl3KlKCbGbmdb-58" value="" style="line;strokeWidth=1;fillColor=none;align=left;verticalAlign=middle;spacingTop=-1;spacingLeft=3;spacingRight=3;rotatable=0;labelPosition=right;points=[];portConstraint=eastwest;strokeColor=inherit;" parent="c1LvxNHjl3KlKCbGbmdb-56" vertex="1">
          <mxGeometry y="190" width="169.53535353535355" height="8" as="geometry" />
        </mxCell>
        <mxCell id="c1LvxNHjl3KlKCbGbmdb-62" value="RegisterViewModel" style="swimlane;fontStyle=1;align=center;verticalAlign=top;childLayout=stackLayout;horizontal=1;startSize=26;horizontalStack=0;resizeParent=1;resizeParentMax=0;resizeLast=0;collapsible=1;marginBottom=0;whiteSpace=wrap;html=1;" parent="XDjCzHebDbUMIGUtCSpz-78" vertex="1">
          <mxGeometry x="784.1010101010102" y="378" width="169.53535353535355" height="88" as="geometry" />
        </mxCell>
        <mxCell id="c1LvxNHjl3KlKCbGbmdb-63" value="+ Name: string&lt;br&gt;+ Password: string&lt;br&gt;+ PasswordConfirm: string" style="text;strokeColor=none;fillColor=none;align=left;verticalAlign=top;spacingLeft=4;spacingRight=4;overflow=hidden;rotatable=0;points=[[0,0.5],[1,0.5]];portConstraint=eastwest;whiteSpace=wrap;html=1;" parent="c1LvxNHjl3KlKCbGbmdb-62" vertex="1">
          <mxGeometry y="26" width="169.53535353535355" height="54" as="geometry" />
        </mxCell>
        <mxCell id="c1LvxNHjl3KlKCbGbmdb-64" value="" style="line;strokeWidth=1;fillColor=none;align=left;verticalAlign=middle;spacingTop=-1;spacingLeft=3;spacingRight=3;rotatable=0;labelPosition=right;points=[];portConstraint=eastwest;strokeColor=inherit;" parent="c1LvxNHjl3KlKCbGbmdb-62" vertex="1">
          <mxGeometry y="80" width="169.53535353535355" height="8" as="geometry" />
        </mxCell>
        <mxCell id="c1LvxNHjl3KlKCbGbmdb-59" value="Moistmeter" style="swimlane;fontStyle=1;align=center;verticalAlign=top;childLayout=stackLayout;horizontal=1;startSize=26;horizontalStack=0;resizeParent=1;resizeParentMax=0;resizeLast=0;collapsible=1;marginBottom=0;whiteSpace=wrap;html=1;" parent="XDjCzHebDbUMIGUtCSpz-78" vertex="1">
          <mxGeometry x="561.5878787878788" y="530" width="169.53535353535355" height="168" as="geometry" />
        </mxCell>
        <mxCell id="c1LvxNHjl3KlKCbGbmdb-60" value="+ id: int&lt;br&gt;+ measure_date: DateTime&lt;br&gt;+ measure_hour: int&lt;br&gt;+ name: string&lt;br&gt;+ channel1: int&lt;br&gt;+ channel1: int&lt;br&gt;+ channel1: int&lt;br&gt;+ channel1: int&lt;br&gt;+ channel1: int" style="text;strokeColor=none;fillColor=none;align=left;verticalAlign=top;spacingLeft=4;spacingRight=4;overflow=hidden;rotatable=0;points=[[0,0.5],[1,0.5]];portConstraint=eastwest;whiteSpace=wrap;html=1;" parent="c1LvxNHjl3KlKCbGbmdb-59" vertex="1">
          <mxGeometry y="26" width="169.53535353535355" height="134" as="geometry" />
        </mxCell>
        <mxCell id="c1LvxNHjl3KlKCbGbmdb-61" value="" style="line;strokeWidth=1;fillColor=none;align=left;verticalAlign=middle;spacingTop=-1;spacingLeft=3;spacingRight=3;rotatable=0;labelPosition=right;points=[];portConstraint=eastwest;strokeColor=inherit;" parent="c1LvxNHjl3KlKCbGbmdb-59" vertex="1">
          <mxGeometry y="160" width="169.53535353535355" height="8" as="geometry" />
        </mxCell>
        <mxCell id="c1LvxNHjl3KlKCbGbmdb-65" value="User" style="swimlane;fontStyle=1;align=center;verticalAlign=top;childLayout=stackLayout;horizontal=1;startSize=26;horizontalStack=0;resizeParent=1;resizeParentMax=0;resizeLast=0;collapsible=1;marginBottom=0;whiteSpace=wrap;html=1;" parent="XDjCzHebDbUMIGUtCSpz-78" vertex="1">
          <mxGeometry x="784.1010101010102" y="230" width="169.53535353535355" height="98" as="geometry" />
        </mxCell>
        <mxCell id="c1LvxNHjl3KlKCbGbmdb-66" value="+ Id: long&lt;br&gt;+ Password: string&lt;br&gt;+ Name: string&lt;br&gt;+ Role: Role" style="text;strokeColor=none;fillColor=none;align=left;verticalAlign=top;spacingLeft=4;spacingRight=4;overflow=hidden;rotatable=0;points=[[0,0.5],[1,0.5]];portConstraint=eastwest;whiteSpace=wrap;html=1;" parent="c1LvxNHjl3KlKCbGbmdb-65" vertex="1">
          <mxGeometry y="26" width="169.53535353535355" height="64" as="geometry" />
        </mxCell>
        <mxCell id="c1LvxNHjl3KlKCbGbmdb-67" value="" style="line;strokeWidth=1;fillColor=none;align=left;verticalAlign=middle;spacingTop=-1;spacingLeft=3;spacingRight=3;rotatable=0;labelPosition=right;points=[];portConstraint=eastwest;strokeColor=inherit;" parent="c1LvxNHjl3KlKCbGbmdb-65" vertex="1">
          <mxGeometry y="90" width="169.53535353535355" height="8" as="geometry" />
        </mxCell>
        <mxCell id="c1LvxNHjl3KlKCbGbmdb-99" value="" style="group;strokeWidth=1;fillColor=none;" parent="XDjCzHebDbUMIGUtCSpz-79" vertex="1" connectable="0">
          <mxGeometry y="40" width="460" height="660" as="geometry" />
        </mxCell>
        <mxCell id="c1LvxNHjl3KlKCbGbmdb-68" value="Repository" style="shape=folder;fontStyle=1;spacingTop=10;tabWidth=40;tabHeight=14;tabPosition=left;html=1;whiteSpace=wrap;verticalAlign=top;" parent="c1LvxNHjl3KlKCbGbmdb-99" vertex="1">
          <mxGeometry width="460" height="660" as="geometry" />
        </mxCell>
        <mxCell id="c1LvxNHjl3KlKCbGbmdb-84" value="MeasurementRepository" style="swimlane;fontStyle=1;align=center;verticalAlign=top;childLayout=stackLayout;horizontal=1;startSize=26;horizontalStack=0;resizeParent=1;resizeParentMax=0;resizeLast=0;collapsible=1;marginBottom=0;whiteSpace=wrap;html=1;" parent="c1LvxNHjl3KlKCbGbmdb-99" vertex="1">
          <mxGeometry x="20" y="50" width="390" height="100" as="geometry">
            <mxRectangle x="35" y="370" width="180" height="30" as="alternateBounds" />
          </mxGeometry>
        </mxCell>
        <mxCell id="c1LvxNHjl3KlKCbGbmdb-85" value="- _context: ApplicationDbContext&lt;br&gt;+ Measurements(): IQueryable&amp;lt;Measurement&amp;gt;" style="text;strokeColor=none;fillColor=none;align=left;verticalAlign=top;spacingLeft=4;spacingRight=4;overflow=hidden;rotatable=0;points=[[0,0.5],[1,0.5]];portConstraint=eastwest;whiteSpace=wrap;html=1;" parent="c1LvxNHjl3KlKCbGbmdb-84" vertex="1">
          <mxGeometry y="26" width="390" height="34" as="geometry" />
        </mxCell>
        <mxCell id="c1LvxNHjl3KlKCbGbmdb-86" value="" style="line;strokeWidth=1;fillColor=none;align=left;verticalAlign=middle;spacingTop=-1;spacingLeft=3;spacingRight=3;rotatable=0;labelPosition=right;points=[];portConstraint=eastwest;strokeColor=inherit;" parent="c1LvxNHjl3KlKCbGbmdb-84" vertex="1">
          <mxGeometry y="60" width="390" height="8" as="geometry" />
        </mxCell>
        <mxCell id="c1LvxNHjl3KlKCbGbmdb-87" value="+ MeasurementRepository(ApplicationDbContext context): Constructor" style="text;strokeColor=none;fillColor=none;align=left;verticalAlign=top;spacingLeft=4;spacingRight=4;overflow=hidden;rotatable=0;points=[[0,0.5],[1,0.5]];portConstraint=eastwest;whiteSpace=wrap;html=1;" parent="c1LvxNHjl3KlKCbGbmdb-84" vertex="1">
          <mxGeometry y="68" width="390" height="32" as="geometry" />
        </mxCell>
        <mxCell id="c1LvxNHjl3KlKCbGbmdb-78" value="IMeasurementRepository" style="swimlane;fontStyle=1;align=center;verticalAlign=top;childLayout=stackLayout;horizontal=1;startSize=26;horizontalStack=0;resizeParent=1;resizeParentMax=0;resizeLast=0;collapsible=1;marginBottom=0;whiteSpace=wrap;html=1;" parent="c1LvxNHjl3KlKCbGbmdb-99" vertex="1">
          <mxGeometry x="30" y="380" width="190" height="68" as="geometry" />
        </mxCell>
        <mxCell id="c1LvxNHjl3KlKCbGbmdb-79" value="+ Measurements: IQueryable&amp;lt;Measurements&amp;gt;" style="text;strokeColor=none;fillColor=none;align=left;verticalAlign=top;spacingLeft=4;spacingRight=4;overflow=hidden;rotatable=0;points=[[0,0.5],[1,0.5]];portConstraint=eastwest;whiteSpace=wrap;html=1;" parent="c1LvxNHjl3KlKCbGbmdb-78" vertex="1">
          <mxGeometry y="26" width="190" height="34" as="geometry" />
        </mxCell>
        <mxCell id="c1LvxNHjl3KlKCbGbmdb-80" value="" style="line;strokeWidth=1;fillColor=none;align=left;verticalAlign=middle;spacingTop=-1;spacingLeft=3;spacingRight=3;rotatable=0;labelPosition=right;points=[];portConstraint=eastwest;strokeColor=inherit;" parent="c1LvxNHjl3KlKCbGbmdb-78" vertex="1">
          <mxGeometry y="60" width="190" height="8" as="geometry" />
        </mxCell>
        <mxCell id="c1LvxNHjl3KlKCbGbmdb-81" value="IMoistmeterRepository" style="swimlane;fontStyle=1;align=center;verticalAlign=top;childLayout=stackLayout;horizontal=1;startSize=26;horizontalStack=0;resizeParent=1;resizeParentMax=0;resizeLast=0;collapsible=1;marginBottom=0;whiteSpace=wrap;html=1;" parent="c1LvxNHjl3KlKCbGbmdb-99" vertex="1">
          <mxGeometry x="30" y="530" width="190" height="68" as="geometry" />
        </mxCell>
        <mxCell id="c1LvxNHjl3KlKCbGbmdb-82" value="+ Moistmeters: IQueryable&amp;lt;Moistmeter&amp;gt;" style="text;strokeColor=none;fillColor=none;align=left;verticalAlign=top;spacingLeft=4;spacingRight=4;overflow=hidden;rotatable=0;points=[[0,0.5],[1,0.5]];portConstraint=eastwest;whiteSpace=wrap;html=1;" parent="c1LvxNHjl3KlKCbGbmdb-81" vertex="1">
          <mxGeometry y="26" width="190" height="34" as="geometry" />
        </mxCell>
        <mxCell id="c1LvxNHjl3KlKCbGbmdb-83" value="" style="line;strokeWidth=1;fillColor=none;align=left;verticalAlign=middle;spacingTop=-1;spacingLeft=3;spacingRight=3;rotatable=0;labelPosition=right;points=[];portConstraint=eastwest;strokeColor=inherit;" parent="c1LvxNHjl3KlKCbGbmdb-81" vertex="1">
          <mxGeometry y="60" width="190" height="8" as="geometry" />
        </mxCell>
        <mxCell id="XDjCzHebDbUMIGUtCSpz-92" style="edgeStyle=orthogonalEdgeStyle;rounded=0;orthogonalLoop=1;jettySize=auto;html=1;endArrow=block;endFill=0;" edge="1" parent="c1LvxNHjl3KlKCbGbmdb-99" source="c1LvxNHjl3KlKCbGbmdb-92" target="c1LvxNHjl3KlKCbGbmdb-72">
          <mxGeometry relative="1" as="geometry" />
        </mxCell>
        <mxCell id="c1LvxNHjl3KlKCbGbmdb-92" value="UserRepository" style="swimlane;fontStyle=1;align=center;verticalAlign=top;childLayout=stackLayout;horizontal=1;startSize=26;horizontalStack=0;resizeParent=1;resizeParentMax=0;resizeLast=0;collapsible=1;marginBottom=0;whiteSpace=wrap;html=1;" parent="c1LvxNHjl3KlKCbGbmdb-99" vertex="1">
          <mxGeometry x="250" y="330" width="200" height="130" as="geometry" />
        </mxCell>
        <mxCell id="c1LvxNHjl3KlKCbGbmdb-93" value="- _db: ApplicationDbContext" style="text;strokeColor=none;fillColor=none;align=left;verticalAlign=top;spacingLeft=4;spacingRight=4;overflow=hidden;rotatable=0;points=[[0,0.5],[1,0.5]];portConstraint=eastwest;whiteSpace=wrap;html=1;" parent="c1LvxNHjl3KlKCbGbmdb-92" vertex="1">
          <mxGeometry y="26" width="200" height="24" as="geometry" />
        </mxCell>
        <mxCell id="c1LvxNHjl3KlKCbGbmdb-94" value="" style="line;strokeWidth=1;fillColor=none;align=left;verticalAlign=middle;spacingTop=-1;spacingLeft=3;spacingRight=3;rotatable=0;labelPosition=right;points=[];portConstraint=eastwest;strokeColor=inherit;" parent="c1LvxNHjl3KlKCbGbmdb-92" vertex="1">
          <mxGeometry y="50" width="200" height="8" as="geometry" />
        </mxCell>
        <mxCell id="c1LvxNHjl3KlKCbGbmdb-95" value="+ GetAll(): IQueryable&amp;lt;User&amp;gt;&lt;br&gt;+ Delete(User entity): Task&lt;br&gt;+ Create(User entity): Task&lt;br&gt;+ Update(User entity): Task&amp;lt;User&amp;gt;" style="text;strokeColor=none;fillColor=none;align=left;verticalAlign=top;spacingLeft=4;spacingRight=4;overflow=hidden;rotatable=0;points=[[0,0.5],[1,0.5]];portConstraint=eastwest;whiteSpace=wrap;html=1;" parent="c1LvxNHjl3KlKCbGbmdb-92" vertex="1">
          <mxGeometry y="58" width="200" height="72" as="geometry" />
        </mxCell>
        <mxCell id="c1LvxNHjl3KlKCbGbmdb-72" value="IBaseRepository&amp;lt;T&amp;gt;" style="swimlane;fontStyle=1;align=center;verticalAlign=top;childLayout=stackLayout;horizontal=1;startSize=26;horizontalStack=0;resizeParent=1;resizeParentMax=0;resizeLast=0;collapsible=1;marginBottom=0;whiteSpace=wrap;html=1;" parent="c1LvxNHjl3KlKCbGbmdb-99" vertex="1">
          <mxGeometry x="270" y="530" width="160" height="100" as="geometry" />
        </mxCell>
        <mxCell id="c1LvxNHjl3KlKCbGbmdb-73" value="" style="line;strokeWidth=1;fillColor=none;align=left;verticalAlign=middle;spacingTop=-1;spacingLeft=3;spacingRight=3;rotatable=0;labelPosition=right;points=[];portConstraint=eastwest;strokeColor=inherit;" parent="c1LvxNHjl3KlKCbGbmdb-72" vertex="1">
          <mxGeometry y="26" width="160" height="8" as="geometry" />
        </mxCell>
        <mxCell id="c1LvxNHjl3KlKCbGbmdb-74" value="+ Create(T entity): Task&lt;br&gt;+ GetAll(): IQueryable&amp;lt;T&amp;gt;&lt;br&gt;+ Delete(T entity): Task&lt;br&gt;+ Update(T entity): Task&amp;lt;T&amp;gt;" style="text;strokeColor=none;fillColor=none;align=left;verticalAlign=top;spacingLeft=4;spacingRight=4;overflow=hidden;rotatable=0;points=[[0,0.5],[1,0.5]];portConstraint=eastwest;whiteSpace=wrap;html=1;" parent="c1LvxNHjl3KlKCbGbmdb-72" vertex="1">
          <mxGeometry y="34" width="160" height="66" as="geometry" />
        </mxCell>
        <mxCell id="XDjCzHebDbUMIGUtCSpz-91" style="edgeStyle=orthogonalEdgeStyle;rounded=0;orthogonalLoop=1;jettySize=auto;html=1;endArrow=block;endFill=0;" edge="1" parent="c1LvxNHjl3KlKCbGbmdb-99" source="c1LvxNHjl3KlKCbGbmdb-88" target="c1LvxNHjl3KlKCbGbmdb-81">
          <mxGeometry relative="1" as="geometry">
            <Array as="points">
              <mxPoint x="240" y="480" />
              <mxPoint x="125" y="480" />
            </Array>
          </mxGeometry>
        </mxCell>
        <mxCell id="c1LvxNHjl3KlKCbGbmdb-88" value="MoistmeterRepository" style="swimlane;fontStyle=1;align=center;verticalAlign=top;childLayout=stackLayout;horizontal=1;startSize=26;horizontalStack=0;resizeParent=1;resizeParentMax=0;resizeLast=0;collapsible=1;marginBottom=0;whiteSpace=wrap;html=1;" parent="c1LvxNHjl3KlKCbGbmdb-99" vertex="1">
          <mxGeometry x="20" y="200" width="390" height="100" as="geometry" />
        </mxCell>
        <mxCell id="c1LvxNHjl3KlKCbGbmdb-89" value="- _context: ApplicationDbContext&lt;br&gt;+ Moistmeters(): IQueryable&amp;lt;Moistmeter&amp;gt;" style="text;strokeColor=none;fillColor=none;align=left;verticalAlign=top;spacingLeft=4;spacingRight=4;overflow=hidden;rotatable=0;points=[[0,0.5],[1,0.5]];portConstraint=eastwest;whiteSpace=wrap;html=1;" parent="c1LvxNHjl3KlKCbGbmdb-88" vertex="1">
          <mxGeometry y="26" width="390" height="34" as="geometry" />
        </mxCell>
        <mxCell id="c1LvxNHjl3KlKCbGbmdb-90" value="" style="line;strokeWidth=1;fillColor=none;align=left;verticalAlign=middle;spacingTop=-1;spacingLeft=3;spacingRight=3;rotatable=0;labelPosition=right;points=[];portConstraint=eastwest;strokeColor=inherit;" parent="c1LvxNHjl3KlKCbGbmdb-88" vertex="1">
          <mxGeometry y="60" width="390" height="8" as="geometry" />
        </mxCell>
        <mxCell id="c1LvxNHjl3KlKCbGbmdb-91" value="+ MoistmeterRepository(ApplicationDbContext context): Constructor" style="text;strokeColor=none;fillColor=none;align=left;verticalAlign=top;spacingLeft=4;spacingRight=4;overflow=hidden;rotatable=0;points=[[0,0.5],[1,0.5]];portConstraint=eastwest;whiteSpace=wrap;html=1;" parent="c1LvxNHjl3KlKCbGbmdb-88" vertex="1">
          <mxGeometry y="68" width="390" height="32" as="geometry" />
        </mxCell>
        <mxCell id="XDjCzHebDbUMIGUtCSpz-90" style="edgeStyle=orthogonalEdgeStyle;rounded=0;orthogonalLoop=1;jettySize=auto;html=1;entryX=0.457;entryY=0.036;entryDx=0;entryDy=0;entryPerimeter=0;endArrow=block;endFill=0;" edge="1" parent="c1LvxNHjl3KlKCbGbmdb-99" source="c1LvxNHjl3KlKCbGbmdb-84" target="c1LvxNHjl3KlKCbGbmdb-78">
          <mxGeometry relative="1" as="geometry">
            <Array as="points">
              <mxPoint x="10" y="100" />
              <mxPoint x="10" y="360" />
              <mxPoint x="117" y="360" />
            </Array>
          </mxGeometry>
        </mxCell>
        <mxCell id="XDjCzHebDbUMIGUtCSpz-93" style="edgeStyle=orthogonalEdgeStyle;rounded=0;orthogonalLoop=1;jettySize=auto;html=1;endArrow=open;endFill=0;startArrow=diamond;startFill=0;" edge="1" parent="XDjCzHebDbUMIGUtCSpz-79" source="c1LvxNHjl3KlKCbGbmdb-84" target="c1LvxNHjl3KlKCbGbmdb-46">
          <mxGeometry relative="1" as="geometry">
            <Array as="points">
              <mxPoint x="480" y="140" />
              <mxPoint x="480" y="113" />
            </Array>
          </mxGeometry>
        </mxCell>
        <mxCell id="XDjCzHebDbUMIGUtCSpz-94" style="edgeStyle=orthogonalEdgeStyle;rounded=0;orthogonalLoop=1;jettySize=auto;html=1;endArrow=open;endFill=0;startArrow=diamond;startFill=0;" edge="1" parent="XDjCzHebDbUMIGUtCSpz-79" source="c1LvxNHjl3KlKCbGbmdb-88" target="c1LvxNHjl3KlKCbGbmdb-48">
          <mxGeometry relative="1" as="geometry">
            <Array as="points">
              <mxPoint x="440" y="290" />
              <mxPoint x="440" y="174" />
            </Array>
          </mxGeometry>
        </mxCell>
        <mxCell id="XDjCzHebDbUMIGUtCSpz-95" style="edgeStyle=orthogonalEdgeStyle;rounded=0;orthogonalLoop=1;jettySize=auto;html=1;entryX=0.461;entryY=1.004;entryDx=0;entryDy=0;entryPerimeter=0;endArrow=open;endFill=0;startArrow=diamond;startFill=0;" edge="1" parent="XDjCzHebDbUMIGUtCSpz-79" source="c1LvxNHjl3KlKCbGbmdb-92" target="c1LvxNHjl3KlKCbGbmdb-48">
          <mxGeometry relative="1" as="geometry">
            <Array as="points">
              <mxPoint x="480" y="435" />
              <mxPoint x="480" y="250" />
              <mxPoint x="690" y="250" />
            </Array>
          </mxGeometry>
        </mxCell>
        <mxCell id="XDjCzHebDbUMIGUtCSpz-80" style="edgeStyle=orthogonalEdgeStyle;rounded=0;orthogonalLoop=1;jettySize=auto;html=1;entryX=0;entryY=0.25;entryDx=0;entryDy=0;endArrow=open;endFill=0;startArrow=diamond;startFill=0;" edge="1" parent="1" source="c1LvxNHjl3KlKCbGbmdb-2" target="c1LvxNHjl3KlKCbGbmdb-41">
          <mxGeometry relative="1" as="geometry">
            <Array as="points">
              <mxPoint x="560" y="140" />
              <mxPoint x="560" y="148" />
            </Array>
          </mxGeometry>
        </mxCell>
        <mxCell id="XDjCzHebDbUMIGUtCSpz-84" style="edgeStyle=orthogonalEdgeStyle;rounded=0;orthogonalLoop=1;jettySize=auto;html=1;entryX=0;entryY=0.5;entryDx=0;entryDy=0;endArrow=open;endFill=0;startArrow=diamond;startFill=0;" edge="1" parent="1" source="c1LvxNHjl3KlKCbGbmdb-12" target="c1LvxNHjl3KlKCbGbmdb-82">
          <mxGeometry relative="1" as="geometry">
            <Array as="points">
              <mxPoint x="-40" y="410" />
              <mxPoint x="-40" y="1523" />
            </Array>
          </mxGeometry>
        </mxCell>
        <mxCell id="XDjCzHebDbUMIGUtCSpz-85" style="edgeStyle=orthogonalEdgeStyle;rounded=0;orthogonalLoop=1;jettySize=auto;html=1;entryX=0;entryY=0.5;entryDx=0;entryDy=0;endArrow=open;endFill=0;startArrow=diamond;startFill=0;" edge="1" parent="1" source="c1LvxNHjl3KlKCbGbmdb-11" target="c1LvxNHjl3KlKCbGbmdb-79">
          <mxGeometry relative="1" as="geometry">
            <Array as="points">
              <mxPoint x="10" y="740" />
              <mxPoint x="10" y="1373" />
            </Array>
          </mxGeometry>
        </mxCell>
        <mxCell id="XDjCzHebDbUMIGUtCSpz-96" style="edgeStyle=orthogonalEdgeStyle;rounded=0;orthogonalLoop=1;jettySize=auto;html=1;entryX=0.487;entryY=1.003;entryDx=0;entryDy=0;entryPerimeter=0;endArrow=open;endFill=0;startArrow=diamond;startFill=0;" edge="1" parent="1" source="c1LvxNHjl3KlKCbGbmdb-26" target="c1LvxNHjl3KlKCbGbmdb-74">
          <mxGeometry relative="1" as="geometry">
            <Array as="points">
              <mxPoint x="1060" y="330" />
              <mxPoint x="1060" y="1700" />
              <mxPoint x="438" y="1700" />
            </Array>
          </mxGeometry>
        </mxCell>
      </root>
    </mxGraphModel>
  </diagram>
</mxfile>
